<svg width="134" height="32" viewBox="0 0 134 32" fill="none" xmlns="http://www.w3.org/2000/svg">
<ellipse cx="15.7647" cy="16" rx="15.7647" ry="16" fill="#BEE3F8"/>
<g clip-path="url(#clip0)">
<path d="M23.647 19.25V8.75C23.647 8.33437 23.2705 8 22.8025 8H11.2605C9.39545 8 7.88232 9.34375 7.88232 11V21C7.88232 22.6562 9.39545 24 11.2605 24H22.8025C23.2705 24 23.647 23.6656 23.647 23.25V22.75C23.647 22.5156 23.5239 22.3031 23.3338 22.1656C23.1861 21.6844 23.1861 20.3125 23.3338 19.8313C23.5239 19.6969 23.647 19.4844 23.647 19.25ZM12.3865 12.1875C12.3865 12.0844 12.4815 12 12.5977 12H20.0577C20.1739 12 20.2689 12.0844 20.2689 12.1875V12.8125C20.2689 12.9156 20.1739 13 20.0577 13H12.5977C12.4815 13 12.3865 12.9156 12.3865 12.8125V12.1875ZM12.3865 14.1875C12.3865 14.0844 12.4815 14 12.5977 14H20.0577C20.1739 14 20.2689 14.0844 20.2689 14.1875V14.8125C20.2689 14.9156 20.1739 15 20.0577 15H12.5977C12.4815 15 12.3865 14.9156 12.3865 14.8125V14.1875ZM21.3034 22H11.2605C10.6376 22 10.1344 21.5531 10.1344 21C10.1344 20.45 10.6411 20 11.2605 20H21.3034C21.2366 20.5344 21.2366 21.4656 21.3034 22Z" fill="#2C5282"/>
</g>
<path d="M40.3318 24.1953C41.0544 24.1953 41.5427 23.7461 41.5427 22.9258V15.5234H42.8123C43.3494 15.5234 43.74 15.1914 43.74 14.5957C43.74 14.0293 43.3494 13.6777 42.8123 13.6777H41.5037V12.8672C41.5037 11.998 41.865 11.6074 42.7537 11.5879C42.9685 11.5781 43.1345 11.5586 43.2908 11.5195C43.6521 11.4121 43.8279 11.1875 43.8279 10.8164C43.8279 10.2109 43.2517 9.80078 41.9626 9.80078C40.0974 9.81055 39.1111 10.7383 39.1111 12.7598V13.6777H38.4666C37.9197 13.6777 37.5291 14.0293 37.5291 14.5957C37.5291 15.1914 37.9197 15.5234 38.4666 15.5234H39.1111V22.9258C39.1111 23.7461 39.5994 24.1953 40.3318 24.1953ZM46.3865 24.1953C47.1189 24.1953 47.6072 23.7168 47.6072 22.916V17.9355C47.6072 16.6758 48.1345 15.8066 49.5212 15.7969C49.9998 15.7871 50.3611 15.6797 50.5955 15.4746C50.8396 15.2793 50.9568 14.9961 50.9568 14.6152C50.9568 14.2148 50.8396 13.9219 50.615 13.7363C50.4294 13.5703 50.1365 13.4727 49.7556 13.4727C48.7205 13.4727 47.822 14.2539 47.5388 15.4648H47.49V14.6738C47.49 13.9121 47.0115 13.4434 46.3376 13.4434C45.6443 13.4434 45.1755 13.9121 45.1755 14.6738V22.916C45.1755 23.7168 45.6541 24.1953 46.3865 24.1953ZM53.3201 12.1934C54.0818 12.1934 54.6775 11.6074 54.6775 10.875C54.6775 10.1328 54.0818 9.55664 53.3201 9.55664C52.5681 9.55664 51.9724 10.1328 51.9724 10.875C51.9724 11.6074 52.5681 12.1934 53.3201 12.1934ZM53.3201 24.1953C54.0623 24.1953 54.5408 23.707 54.5408 22.916V14.7324C54.5408 13.9414 54.0623 13.4434 53.3201 13.4434C52.5779 13.4434 52.1091 13.9414 52.1091 14.7227V22.916C52.1091 23.707 52.5779 24.1953 53.3201 24.1953ZM61.1814 24.2051C63.1541 24.2051 64.697 23.4336 65.3806 22.1152C65.488 21.9004 65.5466 21.6855 65.5466 21.5C65.5466 20.9141 65.1169 20.5625 64.5701 20.5625C64.2283 20.5625 64.0037 20.6699 63.7498 20.9531C62.9685 21.9492 62.2556 22.3301 61.1619 22.3301C59.5798 22.3301 58.574 21.2168 58.574 19.4883V19.4102H64.6775C65.4001 19.4102 65.8103 18.9805 65.8103 18.2578C65.8103 15.4453 63.8767 13.4336 61.0447 13.4336C58.0564 13.4336 56.1521 15.5625 56.1521 18.8633C56.1521 22.2227 58.0173 24.2051 61.1814 24.2051ZM58.5935 17.8086C58.6912 16.3242 59.6873 15.3184 61.0544 15.3184C62.4216 15.3184 63.3787 16.3047 63.4275 17.8086H58.5935ZM68.5935 24.1953C69.3064 24.1953 69.8142 23.7363 69.8142 22.916V18.0039C69.8142 16.5195 70.7029 15.5137 72.0994 15.5137C73.4861 15.5137 74.1697 16.334 74.1697 17.7988V22.916C74.1697 23.7363 74.6775 24.1953 75.3904 24.1953C76.1033 24.1953 76.6013 23.7363 76.6013 22.916V17.3105C76.6013 14.918 75.3025 13.4531 73.0173 13.4531C71.4255 13.4531 70.3513 14.166 69.7947 15.3965H69.7458V14.6738C69.7458 13.9219 69.2576 13.4434 68.5447 13.4434C67.822 13.4434 67.3826 13.9219 67.3826 14.6738V22.916C67.3826 23.7363 67.8806 24.1953 68.5935 24.1953ZM82.4216 24.166C84.0232 24.166 85.1365 23.3555 85.6345 22.1641H85.6833V22.9746C85.6833 23.7656 86.2107 24.1953 86.9138 24.1953C87.6169 24.1953 88.115 23.7559 88.115 22.9746V10.9922C88.115 10.1719 87.6072 9.71289 86.8943 9.71289C86.1814 9.71289 85.6833 10.1719 85.6833 10.9922V15.3867H85.6248C85.0779 14.2441 83.906 13.4727 82.4216 13.4727C79.8142 13.4727 78.1248 15.543 78.1248 18.8145C78.1248 22.1055 79.8142 24.166 82.4216 24.166ZM83.1541 22.1738C81.5818 22.1738 80.615 20.8848 80.615 18.8242C80.615 16.7734 81.5916 15.4746 83.1541 15.4746C84.6873 15.4746 85.6931 16.793 85.6931 18.8242C85.6931 20.875 84.6873 22.1738 83.1541 22.1738ZM91.406 24.1953C92.1091 24.1953 92.6072 23.7559 92.6072 22.9746V22.2324H92.656C93.2712 23.4336 94.4333 24.166 95.947 24.166C98.574 24.166 100.224 22.1348 100.224 18.8242C100.224 15.5137 98.5642 13.4727 95.9568 13.4727C94.4822 13.4727 93.3103 14.2148 92.7146 15.4258H92.656V10.9922C92.656 10.1719 92.158 9.71289 91.4451 9.71289C90.7322 9.71289 90.2244 10.1719 90.2244 10.9922V22.9746C90.2244 23.7656 90.7029 24.1953 91.406 24.1953ZM95.2048 22.1738C93.7009 22.1738 92.6462 20.8555 92.6462 18.8242C92.6462 16.8125 93.7009 15.4746 95.2048 15.4746C96.7576 15.4746 97.7341 16.7734 97.7341 18.8242C97.7341 20.8848 96.7576 22.1738 95.2048 22.1738ZM106.377 24.2051C109.414 24.2051 111.386 22.1836 111.386 18.8242C111.386 15.4746 109.394 13.4336 106.377 13.4336C103.359 13.4336 101.367 15.4844 101.367 18.8242C101.367 22.1836 103.34 24.2051 106.377 24.2051ZM106.377 22.2812C104.834 22.2812 103.838 21.0312 103.838 18.8242C103.838 16.627 104.844 15.3672 106.377 15.3672C107.92 15.3672 108.916 16.627 108.916 18.8242C108.916 21.0312 107.92 22.2812 106.377 22.2812ZM117.529 24.2051C120.566 24.2051 122.539 22.1836 122.539 18.8242C122.539 15.4746 120.547 13.4336 117.529 13.4336C114.511 13.4336 112.519 15.4844 112.519 18.8242C112.519 22.1836 114.492 24.2051 117.529 24.2051ZM117.529 22.2812C115.986 22.2812 114.99 21.0312 114.99 18.8242C114.99 16.627 115.996 15.3672 117.529 15.3672C119.072 15.3672 120.068 16.627 120.068 18.8242C120.068 21.0312 119.072 22.2812 117.529 22.2812ZM125.39 24.1953C126.103 24.1953 126.601 23.7363 126.601 22.916V20.4453L127.519 19.5859L130.625 23.5215C130.976 24.0293 131.26 24.1953 131.738 24.1953C132.412 24.1953 132.89 23.7461 132.89 23.1113C132.89 22.7988 132.812 22.584 132.558 22.2324L129.316 18.1797L132.265 15.3867C132.597 15.0742 132.705 14.8496 132.705 14.4883C132.705 13.9023 132.246 13.4434 131.64 13.4434C131.269 13.4434 131.006 13.5801 130.693 13.9121L126.631 17.9258H126.601V10.9922C126.601 10.1719 126.103 9.71289 125.39 9.71289C124.677 9.71289 124.17 10.1719 124.17 10.9922V22.916C124.17 23.7363 124.677 24.1953 125.39 24.1953Z" fill="white"/>
<defs>
<clipPath id="clip0">
<rect width="15.7647" height="16" fill="white" transform="translate(7.88232 8)"/>
</clipPath>
</defs>
</svg>
