<svg width="223" height="32" viewBox="0 0 223 32" fill="none" xmlns="http://www.w3.org/2000/svg">
<circle cx="16" cy="16" r="16" fill="#BEE3F8"/>
<path d="M24 19.25V8.75C24 8.33437 23.6179 8 23.1429 8H11.4286C9.53571 8 8 9.34375 8 11V21C8 22.6562 9.53571 24 11.4286 24H23.1429C23.6179 24 24 23.6656 24 23.25V22.75C24 22.5156 23.875 22.3031 23.6821 22.1656C23.5321 21.6844 23.5321 20.3125 23.6821 19.8313C23.875 19.6969 24 19.4844 24 19.25ZM12.5714 12.1875C12.5714 12.0844 12.6679 12 12.7857 12H20.3571C20.475 12 20.5714 12.0844 20.5714 12.1875V12.8125C20.5714 12.9156 20.475 13 20.3571 13H12.7857C12.6679 13 12.5714 12.9156 12.5714 12.8125V12.1875ZM12.5714 14.1875C12.5714 14.0844 12.6679 14 12.7857 14H20.3571C20.475 14 20.5714 14.0844 20.5714 14.1875V14.8125C20.5714 14.9156 20.475 15 20.3571 15H12.7857C12.6679 15 12.5714 14.9156 12.5714 14.8125V14.1875ZM21.6214 22H11.4286C10.7964 22 10.2857 21.5531 10.2857 21C10.2857 20.45 10.8 20 11.4286 20H21.6214C21.5536 20.5344 21.5536 21.4656 21.6214 22Z" fill="#2C5282"/>
<path d="M39.76 8.36H48.12V9.9H41.44V14.26H47.64V15.76H41.44V22H39.76V8.36ZM50.5803 8.36H53.9403C54.6736 8.36 55.3403 8.42667 55.9403 8.56C56.5536 8.68 57.0736 8.89333 57.5003 9.2C57.927 9.49333 58.2536 9.88667 58.4803 10.38C58.707 10.8733 58.8203 11.4933 58.8203 12.24C58.807 13.0667 58.667 13.74 58.4003 14.26C58.1336 14.7667 57.807 15.18 57.4203 15.5C57.0336 15.8067 56.587 16.0333 56.0803 16.18V16.22C56.1336 16.2733 56.2136 16.3733 56.3203 16.52C56.4403 16.6533 56.5403 16.7733 56.6203 16.88L60.4803 22H58.5003L54.5403 16.58H52.2603V22H50.5803V8.36ZM57.1203 12.52C57.1203 11.96 57.047 11.5067 56.9003 11.16C56.767 10.8 56.5603 10.5267 56.2803 10.34C56.0136 10.1533 55.6803 10.0267 55.2803 9.96C54.8803 9.89333 54.427 9.86 53.9203 9.86H52.2603V15.08H54.2403C54.7603 15.08 55.2003 15.0133 55.5603 14.88C55.9203 14.7467 56.2136 14.5667 56.4403 14.34C56.667 14.1 56.8336 13.8267 56.9403 13.52C57.047 13.2133 57.107 12.88 57.1203 12.52ZM62.1623 8.36H63.8423V22H62.1623V8.36ZM67.3577 8.36H75.7177V9.9H69.0377V14.26H75.2377V15.76H69.0377V20.46H75.9177V22H67.3577V8.36ZM78.6467 8.36H80.2467L87.4067 19.18H87.4467C87.4201 18.7933 87.4001 18.38 87.3867 17.94C87.3601 17.5667 87.3401 17.14 87.3267 16.66C87.3267 16.1667 87.3267 15.6667 87.3267 15.16V8.36H88.9267V22H87.3267L80.1667 11.14H80.1267C80.1401 11.54 80.1601 11.96 80.1867 12.4C80.2001 12.7867 80.2134 13.22 80.2267 13.7C80.2401 14.18 80.2467 14.6733 80.2467 15.18V22H78.6467V8.36ZM94.1353 20.46H96.8353C97.5686 20.46 98.2553 20.3667 98.8953 20.18C99.5486 19.9933 100.115 19.6933 100.595 19.28C101.089 18.8533 101.475 18.3 101.755 17.62C102.035 16.94 102.175 16.1133 102.175 15.14C102.175 14.2333 102.049 13.4533 101.795 12.8C101.542 12.1333 101.182 11.5867 100.715 11.16C100.262 10.7333 99.702 10.42 99.0353 10.22C98.382 10.0067 97.6486 9.9 96.8353 9.9H94.1353V20.46ZM92.4553 8.36H96.8353C97.9153 8.36 98.8886 8.49333 99.7553 8.76C100.635 9.02667 101.389 9.44 102.015 10C102.642 10.56 103.122 11.2667 103.455 12.12C103.802 12.9733 103.975 13.98 103.975 15.14C103.975 16.3133 103.789 17.3333 103.415 18.2C103.042 19.0533 102.535 19.7667 101.895 20.34C101.255 20.9 100.502 21.32 99.6353 21.6C98.7686 21.8667 97.8353 22 96.8353 22H92.4553V8.36ZM106.752 8.36H110.392C111.832 8.36 112.872 8.62667 113.512 9.16C114.166 9.69333 114.492 10.5067 114.492 11.6C114.492 12.1067 114.419 12.5467 114.272 12.92C114.139 13.2933 113.986 13.6067 113.812 13.86C113.612 14.1533 113.392 14.4067 113.152 14.62C113.472 14.74 113.772 14.8933 114.052 15.08C114.332 15.2667 114.579 15.4933 114.792 15.76C115.006 16.0267 115.172 16.3467 115.292 16.72C115.426 17.08 115.492 17.5067 115.492 18C115.492 18.5467 115.419 19.0667 115.272 19.56C115.126 20.04 114.879 20.46 114.532 20.82C114.186 21.18 113.726 21.4667 113.152 21.68C112.579 21.8933 111.866 22 111.012 22H106.752V8.36ZM108.432 14.28H111.772C111.959 14.1333 112.126 13.94 112.272 13.7C112.406 13.5 112.526 13.2533 112.632 12.96C112.739 12.6533 112.792 12.2867 112.792 11.86C112.792 11.0733 112.586 10.5467 112.172 10.28C111.772 10 111.206 9.86 110.472 9.86H108.432V14.28ZM108.432 20.5H111.152C112.032 20.5 112.692 20.2733 113.132 19.82C113.572 19.3667 113.792 18.76 113.792 18C113.792 17.6667 113.746 17.36 113.652 17.08C113.572 16.8 113.426 16.56 113.212 16.36C112.999 16.1467 112.712 15.98 112.352 15.86C111.992 15.74 111.546 15.68 111.012 15.68H108.432V20.5ZM117.516 15.18C117.516 13.8867 117.716 12.7933 118.116 11.9C118.529 11.0067 119.049 10.2867 119.676 9.74C120.316 9.19333 121.023 8.8 121.796 8.56C122.583 8.30667 123.349 8.18 124.096 8.18C124.843 8.18 125.603 8.28667 126.376 8.5C127.163 8.7 127.869 9.06667 128.496 9.6C129.136 10.12 129.656 10.8333 130.056 11.74C130.469 12.6467 130.676 13.8 130.676 15.2C130.676 16.5067 130.469 17.6067 130.056 18.5C129.656 19.3933 129.136 20.12 128.496 20.68C127.869 21.24 127.163 21.6467 126.376 21.9C125.603 22.14 124.843 22.26 124.096 22.26C123.349 22.26 122.583 22.14 121.796 21.9C121.023 21.66 120.316 21.2667 119.676 20.72C119.049 20.1733 118.529 19.4467 118.116 18.54C117.716 17.6333 117.516 16.5133 117.516 15.18ZM128.776 15.28C128.776 13.48 128.356 12.1133 127.516 11.18C126.689 10.2467 125.576 9.78 124.176 9.78C123.469 9.78 122.823 9.89333 122.236 10.12C121.663 10.3333 121.163 10.66 120.736 11.1C120.323 11.54 119.996 12.0933 119.756 12.76C119.529 13.4133 119.416 14.1867 119.416 15.08C119.416 16.88 119.829 18.26 120.656 19.22C121.496 20.18 122.616 20.66 124.016 20.66C124.709 20.66 125.349 20.5533 125.936 20.34C126.523 20.1133 127.023 19.7733 127.436 19.32C127.863 18.8667 128.189 18.3067 128.416 17.64C128.656 16.9733 128.776 16.1867 128.776 15.28ZM132.711 15.18C132.711 13.8867 132.911 12.7933 133.311 11.9C133.725 11.0067 134.245 10.2867 134.871 9.74C135.511 9.19333 136.218 8.8 136.991 8.56C137.778 8.30667 138.545 8.18 139.291 8.18C140.038 8.18 140.798 8.28667 141.571 8.5C142.358 8.7 143.065 9.06667 143.691 9.6C144.331 10.12 144.851 10.8333 145.251 11.74C145.665 12.6467 145.871 13.8 145.871 15.2C145.871 16.5067 145.665 17.6067 145.251 18.5C144.851 19.3933 144.331 20.12 143.691 20.68C143.065 21.24 142.358 21.6467 141.571 21.9C140.798 22.14 140.038 22.26 139.291 22.26C138.545 22.26 137.778 22.14 136.991 21.9C136.218 21.66 135.511 21.2667 134.871 20.72C134.245 20.1733 133.725 19.4467 133.311 18.54C132.911 17.6333 132.711 16.5133 132.711 15.18ZM143.971 15.28C143.971 13.48 143.551 12.1133 142.711 11.18C141.885 10.2467 140.771 9.78 139.371 9.78C138.665 9.78 138.018 9.89333 137.431 10.12C136.858 10.3333 136.358 10.66 135.931 11.1C135.518 11.54 135.191 12.0933 134.951 12.76C134.725 13.4133 134.611 14.1867 134.611 15.08C134.611 16.88 135.025 18.26 135.851 19.22C136.691 20.18 137.811 20.66 139.211 20.66C139.905 20.66 140.545 20.5533 141.131 20.34C141.718 20.1133 142.218 19.7733 142.631 19.32C143.058 18.8667 143.385 18.3067 143.611 17.64C143.851 16.9733 143.971 16.1867 143.971 15.28ZM148.647 8.36H150.327V14.66L156.047 8.36H158.147L152.907 14.08L158.947 22H156.847L151.747 15.32L150.327 16.88V22H148.647V8.36Z" fill="white"/>
</svg>
